<svg width="188" height="228" viewBox="0 0 188 228" version="1.1" xmlns="http://www.w3.org/2000/svg" xmlns:xlink="http://www.w3.org/1999/xlink">
<title>DesignGuy</title>
<desc>Created using Figma</desc>
<g id="Canvas" transform="matrix(2 0 0 2 3120 8230)">
<g id="DesignGuy">
<g id="Group">
<g id="Union">
<use xlink:href="#path0_fill" transform="translate(-1551.05 -4114.25)" fill="#FFFFFF"/>
</g>
<g id="noun_190462_cc">
<g id="Vector">
<use xlink:href="#path1_fill" transform="matrix(-0.999531 -0.0306339 0.0306339 -0.999531 -1469.62 -4015.16)" fill="#8EEBF6"/>
</g>
</g>
<g id="Polygon">
<use xlink:href="#path2_fill" transform="translate(-1545.46 -4064.17)" fill="#FFFFFF"/>
</g>
<g id="Polygon">
<use xlink:href="#path2_fill" transform="matrix(-1 -1.22465e-16 1.22465e-16 -1 -1490.82 -4044.82)" fill="#FFFFFF"/>
</g>
</g>
</g>
</g>
<defs>
<path id="path0_fill" fill-rule="evenodd" d="M 41.8118 50.4927C 50.0786 45.8933 55.6717 37.0684 55.6717 26.937C 55.6717 12.0601 43.6116 0 28.7346 0C 13.8577 0 1.79747 12.0601 1.79747 26.937C 1.79747 41.814 13.8577 53.8743 28.7346 53.8743C 32.9619 53.8743 36.9618 52.9004 40.5221 51.165L 24.9357 67.7905L 19.4347 62.9797L 0.251573 108.414C -0.953871 111.27 2.43395 113.855 4.86998 111.939L 34.1448 88.9141L 56.5515 110.41C 58.8251 112.591 62.4939 110.241 61.4632 107.264L 41.8118 50.4927Z"/>
<path id="path1_fill" fill-rule="evenodd" d="M 27.1173 62.2276C 25.2379 60.374 22.553 59.05 19.8681 59.05C 17.1832 59.05 14.4984 60.1092 12.6189 62.2276C 5.90673 69.1124 6.7122 77.0563 6.98069 77.3211C 6.44371 82.6171 3.22186 87.1187 4.0968e-06 90.0314C 1.07396 90.2962 2.14791 90.2962 3.49035 90.2962C 16.3778 90.2962 27.1173 77.8507 27.1173 77.8507C 26.8488 77.5859 34.098 69.1124 27.1173 62.2276ZM 89.4065 0.794393C 88.8696 0.264796 88.0641 0 87.5271 0C 86.9901 0 86.4532 0.2648 85.9162 0.529599C 69.2699 11.6511 37.5883 41.3085 23.3585 54.8133C 23.3585 54.8133 27.6543 54.8133 31.1446 58.2556C 34.098 61.1684 34.635 65.9348 34.635 65.9348C 48.3279 51.9005 78.667 20.6543 89.9435 4.23677C 90.4805 3.17758 90.4805 1.58879 89.4065 0.794393Z"/>
<path id="path2_fill" d="M 6.45441 4.35065C 8.28822 2.24516 11.6604 2.6187 12.9889 5.0745L 19.7476 17.5678C 20.6778 19.2872 18.8426 21.1826 17.0941 20.3083L 4.61982 14.0712C 2.28056 12.9016 1.67462 9.83855 3.39234 7.86635L 6.45441 4.35065Z"/>
</defs>
</svg>
